# xmcd CD database file
# Copyright (C) 1993-1996 Ti Kan
#
# Track frame offsets:
#  150
#  17603
#  32167
#  50987
#  68381
#  81366
#  99825
#  113271
#  126743
#  145950
#  160278
#  176059
#  195219
#  212223
#  227891
#
# Disc length: 3314 seconds
#
# Revision: 2
# Processed by: cddbd v1.5.2PL0 Copyright (c) Steve Scherf et al.
# Submitted via: Advanced CD Ripper Pro 2.0
#
DISCID=cc0cf00f
DTITLE=Kenny Rogers - Kenny Rogers
DYEAR=2003
DGENRE=Country
TTITLE0=Kenny Rogers and Dottie West - Lady
TTITLE1=Kenny Rogers - You Needed Me
TTITLE2=Kenny Rogers - So In Love With You
TTITLE3=Kenny Rogers and Sheena Easton - We've Got Tonight
TTITLE4=Kenny Rogers - You Are So Beautiful
TTITLE5=Kenny Rogers - The Fool In Me
TTITLE6=Kenny Rogers - I Wish That I Could Hurt That Way Again
TTITLE7=Kenny Rogers and Dottie West - Together Again
TTITLE8=Kenny Rogers - She Believes In Me
TTITLE9=Kenny Rogers - Love The World Away
TTITLE10=Kenny Rogers - Green Green Grass Of Home
TTITLE11=Kenny Rogers and Dottie West - You've Lost That Lovin Feeling
TTITLE12=Kenny Rogers - Desperado
TTITLE13=Kenny Rogers - The Gambler
TTITLE14=Kenny Rogers - Through the Years
EXTD=
EXTT0=
EXTT1=
EXTT2=
EXTT3=
EXTT4=
EXTT5=
EXTT6=
EXTT7=
EXTT8=
EXTT9=
EXTT10=
EXTT11=
EXTT12=
EXTT13=
EXTT14=
PLAYORDER=
